<svg xmlns="http://www.w3.org/2000/svg" viewBox="0 0 49 46.9"><defs><style>.cls-1{fill:#0071bc;}.cls-2{fill:#999;}</style></defs><title>ws2</title><g id="Layer_2" data-name="Layer 2"><g id="Layer_1-2" data-name="Layer 1"><rect class="cls-1" x="0.7" y="20" width="6.3" height="7"/><rect class="cls-1" x="10.4" y="15" width="6.3" height="12"/><rect class="cls-2" x="20.1" y="10" width="6.3" height="17"/><rect class="cls-2" x="29.7" y="5" width="6.3" height="22"/><rect class="cls-2" x="39.4" width="6.3" height="27"/><g id="_0203-wind-breeze-icon" data-name="0203-wind-breeze-icon"><path class="cls-1" d="M.6,41.1c.6.4.9-1,1.1-1.3A8.3,8.3,0,0,1,4.5,38a14.1,14.1,0,0,1,6.3-1.5c2.8,0,5.8-.4,8.5.3l6.6,1.5c2.5.7,4.9,1.4,7.4,1.8l4.2.5c1.1,0,2.2-.2,3.3-.1s2.1-.4,2.8-1.1a13.8,13.8,0,0,0,2.6-1.4c.6-.3,3.4-3.5,2.6-4.3h-.1c-.5-.3-1.3,1.1-1.7,1.4a16.9,16.9,0,0,1-3,1.9,11.8,11.8,0,0,1-7.1,1,95.9,95.9,0,0,1-13.6-3A38.1,38.1,0,0,0,8,34.4c-2.1.3-4.9,1.3-6.2,2.8S-1.1,40.2.6,41.1Zm48.1-1.6c-.5-.2-1.6,1-1.9,1.3a14.9,14.9,0,0,1-2.6,1.7,13,13,0,0,1-6.5,1.3c-5,0-10.2-2.1-15-3.2a37.5,37.5,0,0,0-15.4-.4,10.1,10.1,0,0,0-5.9,3C.9,44-1,46,.6,46.9s.9-1,1.1-1.3a8.3,8.3,0,0,1,2.7-1.8,14,14,0,0,1,6.3-1.5c2.8,0,5.8-.4,8.5.3l6.6,1.5c2.5.7,4.9,1.4,7.4,1.8l4.2.5c1.1,0,2.2-.2,3.3-.1s2.1-.4,2.8-1.1a13.8,13.8,0,0,0,2.6-1.4c.9-.4,3-3,2.8-4A.4.4,0,0,0,48.8,39.6Z"/></g></g></g></svg>