<svg xmlns="http://www.w3.org/2000/svg" viewBox="0 0 45.3 45"><defs><style>.cls-1{fill:#0071bc;}.cls-2{fill:#999;}</style></defs><title>ws3</title><g id="Layer_2" data-name="Layer 2"><g id="Layer_1-2" data-name="Layer 1"><path class="cls-1" d="M10,35.5a5.4,5.4,0,0,0,4.3,2.3,5.4,5.4,0,0,0,4.3-2.3,5.4,5.4,0,0,0,4.3,2.3,5.4,5.4,0,0,0,4.3-2.3,5.2,5.2,0,0,0,8.6,0,5.4,5.4,0,0,0,4.3,2.3c2.4,0,4.2-1.4,5-4a1.2,1.2,0,0,0-.7-1.5,1.1,1.1,0,0,0-1.4.7,3,3,0,0,1-3,2.4,3.6,3.6,0,0,1-3.3-2.7,1.1,1.1,0,0,0-1-.8h0a1.1,1.1,0,0,0-1,.8,3.6,3.6,0,0,1-3.3,2.7,3.6,3.6,0,0,1-3.3-2.7,1.1,1.1,0,0,0-1-.8h0a1.1,1.1,0,0,0-1,.8,3.6,3.6,0,0,1-3.3,2.7,3.6,3.6,0,0,1-3.3-2.7,1.1,1.1,0,0,0-1-.8h0a1.1,1.1,0,0,0-1,.8,3.6,3.6,0,0,1-3.3,2.7A3.6,3.6,0,0,1,11,32.8a1.1,1.1,0,0,0-1-.8h0a1.1,1.1,0,0,0-1,.8,3.6,3.6,0,0,1-3.3,2.7,3,3,0,0,1-3-2.4,1.1,1.1,0,0,0-1.4-.7,1.2,1.2,0,0,0-.7,1.5c.8,2.6,2.6,4,5,4A5.4,5.4,0,0,0,10,35.5Z"/><path class="cls-1" d="M44.5,39.5a1.1,1.1,0,0,0-1.4.7,3,3,0,0,1-3,2.4,3.6,3.6,0,0,1-3.3-2.7,1.1,1.1,0,0,0-1-.8h0a1.1,1.1,0,0,0-1,.8,3.6,3.6,0,0,1-3.3,2.7,3.6,3.6,0,0,1-3.3-2.7,1.1,1.1,0,0,0-1-.8h0a1.1,1.1,0,0,0-1,.8,3.6,3.6,0,0,1-3.3,2.7,3.6,3.6,0,0,1-3.3-2.7,1.1,1.1,0,0,0-1-.8h0a1.1,1.1,0,0,0-1,.8,3.6,3.6,0,0,1-3.3,2.7A3.6,3.6,0,0,1,11,39.9a1.1,1.1,0,0,0-1-.8h0a1.1,1.1,0,0,0-1,.8,3.6,3.6,0,0,1-3.3,2.7,3,3,0,0,1-3-2.4,1.1,1.1,0,0,0-1.4-.7A1.2,1.2,0,0,0,.5,41c.8,2.6,2.6,4,5,4a5.4,5.4,0,0,0,4.3-2.3A5.4,5.4,0,0,0,14.2,45a5.4,5.4,0,0,0,4.3-2.3A5.4,5.4,0,0,0,22.9,45a5.4,5.4,0,0,0,4.3-2.3,5.2,5.2,0,0,0,8.6,0A5.4,5.4,0,0,0,40.1,45c2.4,0,4.2-1.4,5-4A1.2,1.2,0,0,0,44.5,39.5Z"/><rect class="cls-1" y="20" width="6.3" height="7"/><rect class="cls-1" x="9.7" y="15" width="6.3" height="12"/><rect class="cls-1" x="19.3" y="10" width="6.3" height="17"/><rect class="cls-2" x="29" y="5" width="6.3" height="22"/><rect class="cls-2" x="38.7" width="6.3" height="27"/></g></g></svg>