<svg xmlns="http://www.w3.org/2000/svg" viewBox="0 0 46 44.4"><defs><style>.cls-1{fill:#0071bc;}.cls-2{fill:#999;}</style></defs><title>ws4</title><g id="Layer_2" data-name="Layer 2"><g id="Layer_1-2" data-name="Layer 1"><path class="cls-1" d="M44.7,39.8c-5.5,0-3.2-4.9,0-3.1,0,0,.6-2.8-3.3-2.8s-7.2,5.8-11.6,5.8-3.2-4.9,0-3.1c0,0,.6-2.8-3.3-2.8s-7.2,5.8-11.6,5.8-3.2-4.9,0-3.1c0,0,.6-2.8-3.3-2.8S4.4,39.8,0,39.8v1.9H46V39.8H44.7Z"/><rect class="cls-1" x="0.5" y="20" width="6.3" height="7"/><rect class="cls-1" x="10.2" y="15" width="6.3" height="12"/><rect class="cls-1" x="19.9" y="10" width="6.3" height="17"/><rect class="cls-1" x="29.6" y="5" width="6.3" height="22"/><rect class="cls-2" x="39.2" width="6.3" height="27"/><rect class="cls-1" y="41.4" width="46" height="3"/></g></g></svg>