<svg xmlns="http://www.w3.org/2000/svg" viewBox="0 0 45 43.7"><defs><style>.cls-1{fill:#0071bc;}</style></defs><title>ws5</title><g id="Layer_2" data-name="Layer 2"><g id="Layer_1-2" data-name="Layer 1"><rect class="cls-1" y="20" width="6.3" height="7"/><rect class="cls-1" x="9.7" y="15" width="6.3" height="12"/><rect class="cls-1" x="19.3" y="10" width="6.3" height="17"/><rect class="cls-1" x="29" y="5" width="6.3" height="22"/><rect class="cls-1" x="38.7" width="6.3" height="27"/><path class="cls-1" d="M43.7,40.6c-5.4,0-3.1-8,0-5.1,0,0,.6-4.5-3.2-4.5s-7.1,9.6-11.3,9.6-3.1-8,0-5.1c0,0,.6-4.5-3.2-4.5s-7.1,9.6-11.3,9.6-3.1-8,0-5.1c0,0,.6-4.5-3.2-4.5S4.3,40.6,0,40.6v3.1H45V40.6H43.7Z"/></g></g></svg>