<svg xmlns="http://www.w3.org/2000/svg" viewBox="0 0 118.2 33"><title>2</title><g id="Layer_2" data-name="Layer 2"><g id="Layer_1-2" data-name="Layer 1"><path d="M37,25.3c-5.4,4.2,7.3,5.9,15.4,0S44.3,6,42.4,8.5" style="fill:#3fa9f5"/><path d="M43.6.8S31.5,14.5,31.5,20.4a12.1,12.1,0,1,0,24.2,0C55.7,14.5,43.6.8,43.6.8Zm0,25.7a6.1,6.1,0,0,1-6.1-6.1c0-1.9,2.8-6.4,6.1-10.5,3.2,4,6.1,8.5,6.1,10.5a6,6,0,0,1-6.1,6.1Zm0,0" style="fill:#3fa9f5;stroke:#fff;stroke-miterlimit:10"/><path d="M99,25.3c-5.4,4.2,7.3,5.9,15.4,0S106.3,6,104.4,8.5" style="fill:#bdccd4"/><path d="M105.6.8S93.5,14.5,93.5,20.4a12.1,12.1,0,0,0,24.2,0c0-5.9-12.1-19.6-12.1-19.6Zm0,25.7a6.1,6.1,0,0,1-6.1-6.1c0-1.9,2.8-6.4,6.1-10.5,3.2,4,6.1,8.5,6.1,10.5a6,6,0,0,1-6.1,6.1Zm0,0" style="fill:#bdccd4;stroke:#fff;stroke-miterlimit:10"/><path d="M68,25.3c-5.4,4.2,7.3,5.9,15.4,0S75.3,6,73.4,8.5" style="fill:#bdccd4"/><path d="M74.6.8S62.5,14.5,62.5,20.4a12.1,12.1,0,1,0,24.2,0C86.7,14.5,74.6.8,74.6.8Zm0,25.7a6.1,6.1,0,0,1-6.1-6.1c0-1.9,2.8-6.4,6.1-10.5,3.2,4,6.1,8.5,6.1,10.5a6,6,0,0,1-6.1,6.1Zm0,0" style="fill:#bdccd4;stroke:#fff;stroke-miterlimit:10"/><path d="M6,25.3c-5.4,4.2,7.3,5.9,15.4,0S13.3,6,11.4,8.5" style="fill:#3fa9f5"/><path d="M12.6.8S.5,14.5.5,20.4a12.1,12.1,0,1,0,24.2,0C24.7,14.5,12.6.8,12.6.8Zm0,25.7a6.1,6.1,0,0,1-6.1-6.1c0-1.9,2.8-6.4,6.1-10.5,3.2,4,6.1,8.5,6.1,10.5a6,6,0,0,1-6.1,6.1Zm0,0" style="fill:#3fa9f5;stroke:#fff;stroke-miterlimit:10"/></g></g></svg>