<svg xmlns="http://www.w3.org/2000/svg" viewBox="0 0 73 73"><defs><style>.cls-1{fill:#f0c419;}.cls-2{fill:none;}</style></defs><title>ClearD</title><g id="Layer_2" data-name="Layer 2"><g id="Layer_1-2" data-name="Layer 1"><path class="cls-1" d="M39,11a.8.8,0,0,0-.8.8v4.8a.8.8,0,0,0,1.6,0V11.8A.8.8,0,0,0,39,11Z"/><path class="cls-1" d="M39,52.6a.8.8,0,0,0-.8.8v4.8a.8.8,0,0,0,1.6,0V53.4A.8.8,0,0,0,39,52.6Z"/><path class="cls-1" d="M62.2,34.2H57.4a.8.8,0,0,0,0,1.6h4.8a.8.8,0,0,0,0-1.6Z"/><path class="cls-1" d="M21.4,35a.8.8,0,0,0-.8-.8H15.8a.8.8,0,1,0,0,1.6h4.8A.8.8,0,0,0,21.4,35Z"/><path class="cls-1" d="M52,22.8l.6-.2L57.2,18A.8.8,0,0,0,56,16.8l-4.6,4.6a.8.8,0,0,0,0,1.1Z"/><path class="cls-1" d="M25.4,47.4,20.8,52a.8.8,0,0,0,0,1.1l.6.2.6-.2,4.6-4.6a.8.8,0,1,0-1.1-1.1Z"/><path class="cls-1" d="M52.6,47.4a.8.8,0,1,0-1.1,1.1L56,53.2l.6.2.6-.2a.8.8,0,0,0,0-1.1Z"/><path class="cls-1" d="M22,16.8A.8.8,0,1,0,20.8,18l4.6,4.6.6.2.6-.2a.8.8,0,0,0,0-1.1Z"/><path class="cls-1" d="M55.2,28.1a.8.8,0,0,0,.7.5h.3l2.2-.9a.8.8,0,0,0-.6-1.5l-2.2.9A.8.8,0,0,0,55.2,28.1Z"/><path class="cls-1" d="M22.8,41.9a.8.8,0,0,0-1-.4l-2.2.9a.8.8,0,0,0,.3,1.5h.3l2.2-.9A.8.8,0,0,0,22.8,41.9Z"/><path class="cls-1" d="M58.6,42.1l-2.2-.9a.8.8,0,0,0-.6,1.5l2.2.9h.3a.8.8,0,0,0,.3-1.5Z"/><path class="cls-1" d="M19.4,28l2.2.9h.3a.8.8,0,0,0,.3-1.5L20,26.5a.8.8,0,1,0-.6,1.5Z"/><path class="cls-1" d="M46.9,51.6a.8.8,0,0,0-1.5.6l.9,2.2a.8.8,0,0,0,.7.5h.3a.8.8,0,0,0,.4-1Z"/><path class="cls-1" d="M31.8,18.9h.3a.8.8,0,0,0,.4-1l-.9-2.2a.8.8,0,0,0-1.5.6l.9,2.2A.8.8,0,0,0,31.8,18.9Z"/><path class="cls-1" d="M32.4,51.3a.8.8,0,0,0-1,.4L30.5,54a.8.8,0,0,0,.4,1h.3a.8.8,0,0,0,.7-.5l.9-2.2A.8.8,0,0,0,32.4,51.3Z"/><path class="cls-1" d="M45.9,18.7a.8.8,0,0,0,.7-.5l.9-2.2a.8.8,0,0,0-1.5-.6l-.9,2.2a.8.8,0,0,0,.4,1Z"/><circle class="cls-1" cx="39" cy="35" r="16"/></g><g id="around"><rect class="cls-2" x="1" y="1" width="71" height="71"/><rect class="cls-2" width="73" height="73"/></g></g></svg>