<svg xmlns="http://www.w3.org/2000/svg" viewBox="0 0 71 71"><defs><style>.cls-1{fill:#3fa9f5;stroke:#fff;stroke-miterlimit:10;}.cls-2{fill:none;}</style></defs><title>cloudy</title><g id="Layer_2" data-name="Layer 2"><g id="Layer_1-2" data-name="Layer 1"><path class="cls-1" d="M48.4,36a9.6,9.6,0,0,0-8.7-9.7,9.2,9.2,0,0,0-17.8.4,9,9,0,0,0-2.8-.4c-5,0-9.2,4.5-9.2,9.7s4.2,9.7,9.2,9.7H39.1C44.1,45.8,48.4,41.3,48.4,36Z"/><path class="cls-1" d="M59.2,34.9c0-3.7-2.7-6.8-6-7a6.3,6.3,0,0,0-12.3.3,6,6,0,0,0-1.9-.3c-3.5,0-6.4,3.2-6.4,7s2.9,7,6.4,7H52.8C56.2,42,59.2,38.7,59.2,34.9Z"/><path class="cls-1" d="M55,48a9.6,9.6,0,0,0-8.7-9.7,9.2,9.2,0,0,0-17.8.4,9,9,0,0,0-2.8-.4c-5,0-9.2,4.5-9.2,9.7s4.2,9.7,9.2,9.7H45.8C50.8,57.8,55,53.3,55,48Z"/></g><g id="around"><rect class="cls-2" width="71" height="71"/></g></g></svg>