<svg xmlns="http://www.w3.org/2000/svg" viewBox="0 0 71 71"><defs><style>.cls-1{fill:#f0c419;}.cls-2{fill:#3fa9f5;stroke:#fff;stroke-miterlimit:10;}.cls-3{fill:none;}</style></defs><title>FewCloudsD</title><g id="Layer_2" data-name="Layer 2"><g id="Layer_1-2" data-name="Layer 1"><path class="cls-1" d="M29.5,14a.8.8,0,0,0-.7.8v4.5a.8.8,0,0,0,1.5,0V14.8A.8.8,0,0,0,29.5,14Z"/><path class="cls-1" d="M29.5,53a.8.8,0,0,0-.7.8v4.5a.8.8,0,0,0,1.5,0V53.8A.8.8,0,0,0,29.5,53Z"/><path class="cls-1" d="M51.3,35.8H46.8a.8.8,0,0,0,0,1.5h4.5a.8.8,0,0,0,0-1.5Z"/><path class="cls-1" d="M13,36.5a.8.8,0,0,0-.7-.7H7.8a.8.8,0,0,0,0,1.5h4.5A.8.8,0,0,0,13,36.5Z"/><path class="cls-1" d="M41.7,25.1l.5-.2,4.3-4.3a.7.7,0,1,0-1.1-1.1l-4.3,4.3a.7.7,0,0,0,0,1.1Z"/><path class="cls-1" d="M16.8,48.2l-4.3,4.3a.7.7,0,0,0,0,1.1l.5.2.5-.2,4.3-4.3a.7.7,0,1,0-1.1-1.1Z"/><path class="cls-1" d="M42.2,48.2a.7.7,0,1,0-1.1,1.1l4.3,4.3.5.2.5-.2a.7.7,0,0,0,0-1.1Z"/><path class="cls-1" d="M13.5,19.5a.7.7,0,1,0-1.1,1.1l4.3,4.3.5.2.5-.2a.7.7,0,0,0,0-1.1Z"/><path class="cls-1" d="M44.7,30.1a.8.8,0,0,0,.7.5h.3l2.1-.9a.7.7,0,0,0-.6-1.4l-2.1.9A.7.7,0,0,0,44.7,30.1Z"/><path class="cls-1" d="M14.3,42.9a.8.8,0,0,0-1-.4l-2.1.9a.8.8,0,0,0,.3,1.4h.3l2.1-.9A.7.7,0,0,0,14.3,42.9Z"/><path class="cls-1" d="M47.9,43.1l-2.1-.8a.8.8,0,0,0-.6,1.4l2.1.8h.3a.7.7,0,0,0,.3-1.4Z"/><path class="cls-1" d="M11.1,29.9l2.1.8h.3a.8.8,0,0,0,.3-1.4l-2.1-.8a.8.8,0,1,0-.6,1.4Z"/><path class="cls-1" d="M36.9,52.1a.7.7,0,0,0-1.4.6l.9,2.1a.8.8,0,0,0,.7.5h.3a.8.8,0,0,0,.4-1Z"/><path class="cls-1" d="M22.8,21.4h.3a.8.8,0,0,0,.4-1l-.9-2.1a.7.7,0,0,0-1.4.6l.9,2.1A.8.8,0,0,0,22.8,21.4Z"/><path class="cls-1" d="M23.3,51.8a.8.8,0,0,0-1,.4l-.8,2.1a.8.8,0,0,0,.4,1h.3a.7.7,0,0,0,.7-.5l.8-2.1A.8.8,0,0,0,23.3,51.8Z"/><path class="cls-1" d="M36,21.3a.7.7,0,0,0,.7-.5l.8-2.1a.8.8,0,0,0-1.4-.6l-.8,2.1a.8.8,0,0,0,.4,1Z"/><circle class="cls-1" cx="29.5" cy="36.5" r="15"/><path class="cls-2" d="M60.4,43.4A7,7,0,0,0,54,36.4a6.7,6.7,0,0,0-12.9.3,6.5,6.5,0,0,0-2-.3,7.1,7.1,0,0,0,0,14.1H53.7A7,7,0,0,0,60.4,43.4Z"/></g><g id="around"><rect class="cls-3" width="71" height="71"/></g></g></svg>