<svg xmlns="http://www.w3.org/2000/svg" viewBox="0 0 71 71"><defs><style>.cls-1{fill:none;}.cls-2{fill:#2e3191;}.cls-3{fill:#3fa9f5;stroke:#fff;stroke-miterlimit:10;}</style></defs><title>FewCloudsN</title><g id="Layer_2" data-name="Layer 2"><g id="around"><rect class="cls-1" width="71" height="71"/><g id="Snowflake_1" data-name="Snowflake 1"><path class="cls-2" d="M48.8,40A20.8,20.8,0,0,1,19.3,16,20.8,20.8,0,1,0,49.5,39.7Z"/><path class="cls-3" d="M53,43.3A6.3,6.3,0,0,0,47.3,37a6,6,0,0,0-11.6.3l-1.8-.3a6.4,6.4,0,0,0,0,12.7H47A6.3,6.3,0,0,0,53,43.3Z"/><polygon class="cls-2" points="27.5 19.4 28.6 21.6 31 22 29.2 23.7 29.7 26.2 27.5 25 25.3 26.2 25.7 23.7 23.9 22 26.4 21.6 27.5 19.4"/></g></g></g></svg>