<svg xmlns="http://www.w3.org/2000/svg" viewBox="0 0 100 100"><defs><style>.cls-1{fill:none;}.cls-2{fill:#3fa9f5;}</style></defs><title>fog</title><g id="Layer_2" data-name="Layer 2"><g id="around"><rect class="cls-1" width="100" height="100"/></g><g id="Layer_3" data-name="Layer 3"><path class="cls-2" d="M76.3,34.9H27a11.4,11.4,0,0,0-1,2.6H78.1a9,9,0,0,0-1.8-2.6Zm0,0"/><path class="cls-2" d="M65.4,29.7a14.9,14.9,0,0,0-7.5,2.1,14.9,14.9,0,0,0-1.8-2.1H30.6a10.2,10.2,0,0,0-2.1,2.6H73.7a15.1,15.1,0,0,0-8.3-2.6Zm0,0"/><path class="cls-2" d="M79.2,40H25.5a8.8,8.8,0,0,0-.3,2.6H79.7c-.3-.8-.3-1.8-.5-2.6Zm0,0"/><path class="cls-2" d="M43.4,24.5A18.9,18.9,0,0,0,34,27.1H52.7a18.6,18.6,0,0,0-9.3-2.6Zm0,0"/><path class="cls-2" d="M17.4,55.6a8.8,8.8,0,0,0,.3,2.6H87.2a8.8,8.8,0,0,0,.3-2.6Zm0,0"/><path class="cls-2" d="M20,63.3H84.9a25,25,0,0,0,1.6-2.6h-68A24,24,0,0,0,20,63.3Zm0,0"/><path class="cls-2" d="M82.3,45.2H22.6A12,12,0,0,0,20,47.8H84.9a12.3,12.3,0,0,0-2.6-2.6Zm0,0"/><path class="cls-2" d="M30.4,68.5H74.5a13.4,13.4,0,0,0,7.8-2.6H22.6a13.4,13.4,0,0,0,7.8,2.6Zm0,0"/><path class="cls-2" d="M86.5,50.4h-68L17.7,53H87.2l-.8-2.6Zm0,0"/></g></g></svg>