<svg xmlns="http://www.w3.org/2000/svg" viewBox="0 0 72 72"><defs><style>.cls-1{fill:#3fa9f5;}.cls-2{fill:none;}</style></defs><title>lightSnow</title><g id="Layer_2" data-name="Layer 2"><g id="Layer_1-2" data-name="Layer 1"><path class="cls-1" d="M53.3,30.5l-3.2-1.8,3.2-1.8a1.1,1.1,0,0,0-1.1-2L49,26.7V23a1.1,1.1,0,1,0-2.3,0v3.7l-3.2-1.8a1.1,1.1,0,0,0-1.1,2l3.2,1.8-3.2,1.8a1.1,1.1,0,0,0,.6,2.1l.6-.2,3.2-1.8v3.7a1.1,1.1,0,1,0,2.3,0V30.6l3.2,1.8.6.2a1.1,1.1,0,0,0,.6-2.1Z"/><path class="cls-1" d="M30,25.3a1.1,1.1,0,0,0-1.5-.4l-3.2,1.8V23A1.1,1.1,0,0,0,23,23v3.7l-3.2-1.8a1.1,1.1,0,1,0-1.1,2l3.2,1.8-3.2,1.8a1.1,1.1,0,0,0,.6,2.1l.6-.2L23,30.6v3.7a1.1,1.1,0,1,0,2.3,0V30.6l3.2,1.8.6.2a1.1,1.1,0,0,0,.6-2.1l-3.2-1.8,3.2-1.8A1.1,1.1,0,0,0,30,25.3Z"/><path class="cls-1" d="M42.4,40a1.1,1.1,0,0,0-1.5-.4l-3.2,1.8V37.7a1.1,1.1,0,0,0-2.3,0v3.7l-3.2-1.8a1.1,1.1,0,0,0-1.1,2l3.2,1.8-3.2,1.8a1.1,1.1,0,0,0,.6,2.1l.6-.2,3.2-1.8V49a1.1,1.1,0,0,0,2.3,0V45.3l3.2,1.8.6.2a1.1,1.1,0,0,0,.6-2.1l-3.2-1.8L42,41.5A1.1,1.1,0,0,0,42.4,40Z"/></g><g id="around"><rect class="cls-2" width="72" height="72"/></g></g></svg>