<svg xmlns="http://www.w3.org/2000/svg" viewBox="0 0 72 71.7"><defs><style>.cls-1,.cls-2{fill:#3fa9f5;}.cls-2{stroke:#fff;stroke-miterlimit:10;}.cls-3{fill:none;}</style></defs><title>lightRain</title><g id="Layer_2" data-name="Layer 2"><g id="around"><path class="cls-1" d="M42.6,45.7s-3.6,4-3.6,5.8a3.6,3.6,0,1,0,7.1,0c0-1.7-3.6-5.8-3.6-5.8Zm0,7.5"/><path class="cls-1" d="M29,45.7s-3.6,4-3.6,5.8a3.6,3.6,0,1,0,7.1,0c0-1.7-3.6-5.8-3.6-5.8Zm0,7.5"/><path class="cls-2" d="M54,32a9.8,9.8,0,0,0-8.8-9.8,9.3,9.3,0,0,0-18,.4,9.1,9.1,0,0,0-2.8-.4c-5.1,0-9.3,4.5-9.3,9.8s4.3,9.8,9.3,9.8H44.7C49.7,41.8,54,37.3,54,32Z"/><rect class="cls-3" width="72" height="71.66"/></g></g></svg>