<svg xmlns="http://www.w3.org/2000/svg" viewBox="0 0 73 71"><defs><style>.cls-1{fill:#2e3191;}.cls-2{fill:#3fa9f5;stroke:#fff;stroke-miterlimit:10;}.cls-3{fill:none;}</style></defs><title>partlyCloudyN</title><g id="Layer_2" data-name="Layer 2"><g id="around"><path class="cls-1" d="M43.3,34.3a16.4,16.4,0,0,1-23.2-19A16.4,16.4,0,1,0,43.9,34Z"/><path class="cls-2" d="M61.4,34.7c0-3.5-2.6-6.4-5.7-6.6a5.9,5.9,0,0,0-11.6.3,5.7,5.7,0,0,0-1.8-.3c-3.3,0-6,3-6,6.6s2.8,6.6,6,6.6H55.4C58.6,41.4,61.4,38.3,61.4,34.7Z"/><path class="cls-2" d="M58.3,46.5a9.1,9.1,0,0,0-8.2-9.1,8.7,8.7,0,0,0-16.8.4,8.5,8.5,0,0,0-2.6-.4c-4.7,0-8.7,4.2-8.7,9.2s4,9.2,8.7,9.2H49.6C54.3,55.7,58.3,51.5,58.3,46.5Z"/><polygon class="cls-1" points="28.4 18.6 29.5 20.8 31.9 21.1 30.1 22.9 30.6 25.3 28.4 24.2 26.2 25.3 26.6 22.9 24.8 21.1 27.3 20.8 28.4 18.6"/><rect class="cls-3" width="73" height="71"/></g></g></svg>