<svg xmlns="http://www.w3.org/2000/svg" viewBox="0 0 71.1 71"><defs><style>.cls-1{fill:#f0c419;}.cls-2{fill:#3fa9f5;stroke:#fff;stroke-miterlimit:10;}.cls-3{fill:none;}</style></defs><title>partlyCloudyD</title><g id="Layer_2" data-name="Layer 2"><g id="Layer_1-2" data-name="Layer 1"><path class="cls-1" d="M28.9,10.4a.6.6,0,0,0-.6.6v3.8a.6.6,0,1,0,1.3,0V11A.6.6,0,0,0,28.9,10.4Z"/><path class="cls-1" d="M28.9,43.3a.6.6,0,0,0-.6.6v3.8a.6.6,0,0,0,1.3,0V43.9A.6.6,0,0,0,28.9,43.3Z"/><path class="cls-1" d="M47.2,28.7H43.4a.6.6,0,1,0,0,1.3h3.8a.6.6,0,0,0,0-1.3Z"/><path class="cls-1" d="M14.9,29.4a.6.6,0,0,0-.6-.6H10.5a.6.6,0,1,0,0,1.3h3.8A.6.6,0,0,0,14.9,29.4Z"/><path class="cls-1" d="M39.2,19.7l.4-.2,3.6-3.6a.6.6,0,0,0-.9-.9l-3.6,3.6a.6.6,0,0,0,0,.9Z"/><path class="cls-1" d="M18.1,39.2l-3.6,3.6a.6.6,0,0,0,0,.9l.4.2.4-.2L19,40.1a.6.6,0,0,0-.9-.9Z"/><path class="cls-1" d="M39.6,39.2a.6.6,0,0,0-.9.9l3.6,3.6.4.2.4-.2a.6.6,0,0,0,0-.9Z"/><path class="cls-1" d="M15.4,15a.6.6,0,0,0-.9.9l3.6,3.6.4.2.4-.2a.6.6,0,0,0,0-.9Z"/><path class="cls-1" d="M41.7,23.9a.6.6,0,0,0,.6.4h.2l1.7-.7a.6.6,0,0,0-.5-1.2l-1.7.7A.6.6,0,0,0,41.7,23.9Z"/><path class="cls-1" d="M16,34.8a.6.6,0,0,0-.8-.3l-1.7.7a.6.6,0,0,0,.2,1.2H14l1.7-.7A.6.6,0,0,0,16,34.8Z"/><path class="cls-1" d="M44.4,35l-1.8-.7a.6.6,0,1,0-.5,1.2l1.8.7h.2a.6.6,0,0,0,.2-1.2Z"/><path class="cls-1" d="M13.4,23.8l1.8.7h.2a.6.6,0,0,0,.2-1.2l-1.8-.7a.6.6,0,1,0-.5,1.2Z"/><path class="cls-1" d="M35.1,42.5A.6.6,0,0,0,34,43l.7,1.7a.6.6,0,0,0,.6.4h.2a.6.6,0,0,0,.3-.8Z"/><path class="cls-1" d="M23.2,16.6h.2a.6.6,0,0,0,.3-.8L23,14a.6.6,0,0,0-1.2.5l.7,1.7A.6.6,0,0,0,23.2,16.6Z"/><path class="cls-1" d="M23.7,42.3a.6.6,0,0,0-.8.4l-.7,1.8a.6.6,0,0,0,.4.8h.2a.6.6,0,0,0,.6-.4l.7-1.8A.6.6,0,0,0,23.7,42.3Z"/><path class="cls-1" d="M34.3,16.5a.6.6,0,0,0,.6-.4l.7-1.8a.6.6,0,0,0-1.2-.5l-.7,1.8a.6.6,0,0,0,.4.8Z"/><circle class="cls-1" cx="28.9" cy="29.4" r="12.7"/><path class="cls-2" d="M61.4,31.7c0-4-3-7.4-6.6-7.6a6.8,6.8,0,0,0-13.4.3,6.5,6.5,0,0,0-2.1-.3c-3.8,0-6.9,3.5-6.9,7.6s3.2,7.6,6.9,7.6H54.5C58.2,39.4,61.4,35.9,61.4,31.7Z"/><path class="cls-2" d="M57.9,45.3c0-5.5-4.3-10.2-9.5-10.5a10,10,0,0,0-19.3.5,9.8,9.8,0,0,0-3-.5c-5.4,0-10,4.8-10,10.5s4.6,10.5,10,10.5H47.9C53.3,55.9,57.9,51,57.9,45.3Z"/></g><g id="around"><rect class="cls-3" width="71.1" height="71"/></g></g></svg>