<svg xmlns="http://www.w3.org/2000/svg" viewBox="0 0 72.4 72"><defs><style>.cls-1,.cls-2{fill:#3fa9f5;}.cls-1{stroke:#fff;stroke-miterlimit:10;}.cls-3{fill:none;}.cls-4{font-size:18px;fill:#fff;font-family:Avenir-Black, Avenir;}</style></defs><title>possibleRain</title><g id="Layer_2" data-name="Layer 2"><g id="around"><path class="cls-1" d="M58,29.1c0-5.9-4.6-10.9-10.1-11.2a10.6,10.6,0,0,0-20.6.5,10.4,10.4,0,0,0-3.2-.5c-5.8,0-10.6,5.1-10.6,11.2s4.9,11.2,10.6,11.2H47.4C53.1,40.4,58,35.2,58,29.1Z"/><path class="cls-2" d="M27.5,41.9s-3.6,4-3.6,5.8a3.6,3.6,0,0,0,7.1,0c0-1.7-3.6-5.8-3.6-5.8Zm0,7.5a1.8,1.8,0,0,1-1.8-1.8,8,8,0,0,1,1.8-3.1,8,8,0,0,1,1.8,3.1,1.8,1.8,0,0,1-1.8,1.8Zm0,0"/><path class="cls-2" d="M37.9,41.9s-3.6,4-3.6,5.8a3.6,3.6,0,0,0,7.1,0c0-1.7-3.6-5.8-3.6-5.8Zm0,7.5"/><path class="cls-2" d="M48.6,41.9s-3.6,4-3.6,5.8a3.6,3.6,0,0,0,7.1,0c0-1.7-3.6-5.8-3.6-5.8Zm0,7.5"/><path class="cls-2" d="M27.5,41.9s-3.6,4-3.6,5.8a3.6,3.6,0,1,0,7.1,0c0-1.7-3.6-5.8-3.6-5.8Zm0,7.5"/><path class="cls-2" d="M33.6,52.5s-3.6,4-3.6,5.8a3.6,3.6,0,1,0,7.1,0c0-1.7-3.6-5.8-3.6-5.8Zm0,7.5"/><path class="cls-2" d="M44.2,52.5s-3.6,4-3.6,5.8a3.6,3.6,0,1,0,7.1,0c0-1.7-3.6-5.8-3.6-5.8Zm0,7.5"/><path class="cls-2" d="M22.9,52.5s-3.6,4-3.6,5.8a3.6,3.6,0,1,0,7.1,0c0-1.7-3.6-5.8-3.6-5.8Zm0,7.5"/><rect class="cls-3" width="72.4" height="72"/><text class="cls-4" transform="translate(31.7 31.5)">?</text></g></g></svg>