<svg xmlns="http://www.w3.org/2000/svg" viewBox="0 0 72 72.5"><defs><style>.cls-1,.cls-2{fill:#3fa9f5;}.cls-2{stroke:#fff;stroke-miterlimit:10;}.cls-3{fill:none;}</style></defs><title>sleet</title><g id="Layer_2" data-name="Layer 2"><g id="Layer_1-2" data-name="Layer 1"><path class="cls-1" d="M42.7,48.7a1.1,1.1,0,0,0-1.5-.4L38,50.1V46.4a1.1,1.1,0,0,0-2.3,0v3.7l-3.2-1.8a1.1,1.1,0,0,0-1.1,2l3.2,1.8-3.2,1.8A1.1,1.1,0,0,0,32,56l.6-.2L35.7,54v3.7a1.1,1.1,0,1,0,2.3,0V54l3.2,1.8.6.2a1.1,1.1,0,0,0,.6-2.1l-3.2-1.8,3.2-1.8A1.1,1.1,0,0,0,42.7,48.7Z"/><path class="cls-1" d="M51.2,47.6s-3.6,4-3.6,5.8a3.6,3.6,0,1,0,7.1,0c0-1.7-3.6-5.8-3.6-5.8Zm0,7.5"/><path class="cls-1" d="M21.6,47.6s-3.6,4-3.6,5.8a3.6,3.6,0,1,0,7.1,0c0-1.7-3.6-5.8-3.6-5.8Zm0,7.5"/><path class="cls-2" d="M55.5,30.3a9.8,9.8,0,0,0-8.8-9.8,9.3,9.3,0,0,0-18,.4,9.1,9.1,0,0,0-2.8-.4c-5.1,0-9.3,4.5-9.3,9.8s4.3,9.8,9.3,9.8H46.2C51.2,40.1,55.5,35.6,55.5,30.3Z"/></g><g id="around"><rect class="cls-3" width="72" height="72.49"/></g></g></svg>