<svg xmlns="http://www.w3.org/2000/svg" viewBox="0 0 72 72"><defs><style>.cls-1{fill:none;}.cls-2{fill:#3fa9f5;}</style></defs><title>snow</title><g id="Layer_2" data-name="Layer 2"><g id="around"><rect class="cls-1" width="72" height="72"/><path class="cls-2" d="M57,41.5l-1.5-2.7L49.6,42l-2.1-1.2,2.2-1.1-1.4-2.8-4,2-2.6-1.5a5.7,5.7,0,0,0,0-2.8l2.6-1.5,4,2,1.4-2.8-2.2-1.1L49.6,30l5.9,3.3L57,30.5l-4.3-2.4,3.5-2-1.6-2.7-3.5,2V20.6H48.1v6.8l-2.1,1.2.2-2.4-3.1-.2-.3,4.5L40,31.9a5.7,5.7,0,0,0-2.4-1.4v-3L41.3,25l-1.7-2.6-2,1.3V21.2l5.8-3.5-1.6-2.7-4.2,2.5v-4H34.4v4l-4.2-2.5-1.6,2.7,5.8,3.5v2.4l-2-1.3L30.7,25l3.7,2.5v3A5.7,5.7,0,0,0,32,31.9l-2.6-1.5-.3-4.5-3.1.2.2,2.4L24,27.3V20.5H20.8v4.9l-3.5-2-1.6,2.7,3.5,2L15,30.5l1.5,2.7L22.4,30l2.1,1.2-2.2,1.1,1.4,2.8,4-2,2.6,1.5a5.7,5.7,0,0,0,0,2.8l-2.6,1.5-4-2-1.4,2.8,2.2,1.1L22.4,42l-5.9-3.3L15,41.5l4.3,2.4-3.5,2,1.6,2.7,3.5-2v4.9h3.1V44.7l2.1-1.2L26,45.9l3.1.2.3-4.5L32,40.1a5.7,5.7,0,0,0,2.4,1.4v3L30.7,47l1.7,2.6,2-1.3v2.4l-5.8,3.5,1.6,2.7,4.2-2.5v4h3.1v-4l4.2,2.5,1.6-2.7-5.8-3.5V48.3l2,1.3L41.3,47l-3.7-2.5v-3A5.7,5.7,0,0,0,40,40.1l2.6,1.5.3,4.5,3.1-.2-.2-2.4L48,44.7v6.8h3.1V46.6l3.5,2,1.6-2.7-3.5-2Z"/></g></g></svg>