<svg xmlns="http://www.w3.org/2000/svg" viewBox="0 0 72.2 72.9"><defs><style>.cls-1{fill:#fdd000;}.cls-2,.cls-3{fill:#3fa9f5;}.cls-2{stroke:#fff;stroke-miterlimit:10;}.cls-4{fill:none;}</style></defs><title>storm</title><g id="Layer_2" data-name="Layer 2"><g id="around"><polygon class="cls-1" points="40.2 45.5 35.5 44.1 44 33 35.9 30.6 28.3 47.6 34 49.2 30.8 61 40.2 45.5"/><path class="cls-2" d="M57,28.1a9.5,9.5,0,0,0-8.6-9.5,9,9,0,0,0-17.5.4,8.8,8.8,0,0,0-2.7-.4c-4.9,0-9,4.4-9,9.5s4.1,9.5,9,9.5H48C52.9,37.6,57,33.2,57,28.1Z"/><path class="cls-3" d="M50.6,38.9s-3.4,3.4-3.8,5,.2,3.7,1.5,4.1,2.8-1,3.2-2.9-1-6.2-1-6.2Zm-1.8,7.4"/><path class="cls-3" d="M22.6,37.9s-3.4,3.4-3.8,5,.2,3.7,1.5,4.1,2.8-1,3.2-2.9-1-6.2-1-6.2Zm-1.8,7.4"/><path class="cls-3" d="M43.6,50.9s-3.4,3.4-3.8,5,.2,3.7,1.5,4.1,2.8-1,3.2-2.9-1-6.2-1-6.2Zm-1.8,7.4"/><path class="cls-3" d="M27.6,49.9s-3.4,3.4-3.8,5,.2,3.7,1.5,4.1,2.8-1,3.2-2.9-1-6.2-1-6.2Zm-1.8,7.4"/><rect class="cls-4" width="72.2" height="72.94"/></g></g></svg>