<svg xmlns="http://www.w3.org/2000/svg" viewBox="0 0 71 71"><defs><style>.cls-1{fill:none;}.cls-2{fill:#2e3191;}.cls-3{opacity:0.41;}.cls-4{fill:#3fa9f5;stroke:#fff;stroke-miterlimit:10;}</style></defs><title>thinCloudsN</title><g id="Layer_2" data-name="Layer 2"><g id="around"><rect class="cls-1" width="71" height="71"/><g id="Snowflake_1" data-name="Snowflake 1"><path class="cls-2" d="M46.9,33.8a16.8,16.8,0,0,1-22.4-7.4,16.3,16.3,0,0,1-1.2-11.7,16.4,16.4,0,0,0-6.9,21.9A16.8,16.8,0,0,0,38.8,44a16.5,16.5,0,0,0,8.6-10.5Z"/><g class="cls-3"><path class="cls-4" d="M58.2,32.1c0-4-3-7.4-6.6-7.6a6.8,6.8,0,0,0-13.4.3,6.5,6.5,0,0,0-2.1-.3c-3.8,0-6.9,3.5-6.9,7.6s3.2,7.6,6.9,7.6H51.2C55,39.8,58.2,36.3,58.2,32.1Z"/><path class="cls-4" d="M54.6,45.7c0-5.5-4.3-10.2-9.5-10.5a10,10,0,0,0-19.3.5,9.8,9.8,0,0,0-3-.5c-5.4,0-10,4.8-10,10.5s4.6,10.5,10,10.5H44.6C50.1,56.3,54.6,51.4,54.6,45.7Z"/></g><polygon class="cls-2" points="30.8 17.1 31.9 19.4 34.4 19.7 32.6 21.5 33 23.9 30.8 22.7 28.6 23.9 29 21.5 27.3 19.7 29.7 19.4 30.8 17.1"/></g></g></g></svg>