<svg xmlns="http://www.w3.org/2000/svg" viewBox="0 0 73.3 71.1"><defs><style>.cls-1{fill:#f0c419;}.cls-2{opacity:0.41;}.cls-3{fill:#3fa9f5;stroke:#fff;stroke-miterlimit:10;}.cls-4{fill:none;}</style></defs><title>thinCloudsD</title><g id="Layer_2" data-name="Layer 2"><g id="Layer_1-2" data-name="Layer 1"><path class="cls-1" d="M32.6,14.3a.6.6,0,0,0-.6.6v3.4a.6.6,0,0,0,1.1,0V14.8A.6.6,0,0,0,32.6,14.3Z"/><path class="cls-1" d="M32.6,43.7a.6.6,0,0,0-.6.6v3.4a.6.6,0,1,0,1.1,0V44.3A.6.6,0,0,0,32.6,43.7Z"/><path class="cls-1" d="M49.1,30.7H45.7a.6.6,0,1,0,0,1.1h3.4a.6.6,0,0,0,0-1.1Z"/><path class="cls-1" d="M20.2,31.3a.6.6,0,0,0-.6-.6H16.2a.6.6,0,0,0,0,1.1h3.4A.6.6,0,0,0,20.2,31.3Z"/><path class="cls-1" d="M41.9,22.6l.4-.2,3.3-3.3a.6.6,0,0,0-.8-.8l-3.3,3.3a.6.6,0,0,0,0,.8Z"/><path class="cls-1" d="M23,40.1l-3.3,3.3a.6.6,0,0,0,0,.8l.4.2.4-.2,3.3-3.3a.6.6,0,1,0-.8-.8Z"/><path class="cls-1" d="M42.3,40.1a.6.6,0,0,0-.8.8l3.3,3.3.4.2.4-.2a.6.6,0,0,0,0-.8Z"/><path class="cls-1" d="M20.6,18.4a.6.6,0,0,0-.8.8L23,22.4l.4.2.4-.2a.6.6,0,0,0,0-.8Z"/><path class="cls-1" d="M44.1,26.4a.6.6,0,0,0,.5.3h.2l1.6-.7a.6.6,0,0,0-.4-1l-1.6.7A.6.6,0,0,0,44.1,26.4Z"/><path class="cls-1" d="M21.2,36.1a.6.6,0,0,0-.7-.3l-1.6.7a.6.6,0,0,0,.2,1.1h.2l1.6-.7A.6.6,0,0,0,21.2,36.1Z"/><path class="cls-1" d="M46.5,36.2l-1.6-.6a.6.6,0,1,0-.4,1.1l1.6.6h.2a.6.6,0,0,0,.2-1.1Z"/><path class="cls-1" d="M18.8,26.3l1.6.6h.2a.6.6,0,0,0,.2-1.1l-1.6-.6a.6.6,0,1,0-.4,1.1Z"/><path class="cls-1" d="M38.3,43a.6.6,0,0,0-1,.4l.7,1.6a.6.6,0,0,0,.5.3h.2a.6.6,0,0,0,.3-.7Z"/><path class="cls-1" d="M27.5,19.8h.2a.6.6,0,0,0,.3-.7l-.7-1.6a.6.6,0,0,0-1,.4l.7,1.6A.6.6,0,0,0,27.5,19.8Z"/><path class="cls-1" d="M28,42.8a.6.6,0,0,0-.7.3l-.6,1.6a.6.6,0,0,0,.3.7h.2a.6.6,0,0,0,.5-.4l.6-1.6A.6.6,0,0,0,28,42.8Z"/><path class="cls-1" d="M37.5,19.7a.6.6,0,0,0,.5-.4l.6-1.6a.6.6,0,0,0-1.1-.4L37,19a.6.6,0,0,0,.3.7Z"/><circle class="cls-1" cx="32.6" cy="31.2" r="11.3"/><g class="cls-2"><path class="cls-3" d="M58.2,32.6c0-4-3-7.4-6.6-7.6a6.8,6.8,0,0,0-13.4.3,6.5,6.5,0,0,0-2.1-.3c-3.8,0-6.9,3.5-6.9,7.6s3.2,7.6,6.9,7.6H51.2C55,40.3,58.2,36.8,58.2,32.6Z"/><path class="cls-3" d="M54.6,46.2c0-5.5-4.3-10.2-9.5-10.5a10,10,0,0,0-19.3.5,9.8,9.8,0,0,0-3-.5c-5.4,0-10,4.8-10,10.5s4.6,10.5,10,10.5H44.6C50.1,56.8,54.6,51.9,54.6,46.2Z"/></g></g><g id="around"><rect class="cls-4" width="73.3" height="71.13"/></g></g></svg>